<svg id="svg" version="1.1" xmlns="http://www.w3.org/2000/svg" xmlns:xlink="http://www.w3.org/1999/xlink" width="400" height="67.42301458670988" viewBox="0, 0, 400,67.42301458670988"><g id="svgg"><path id="path0" d="M26.333 0.167 C 26.333 0.264,25.778 0.333,25.000 0.333 C 23.789 0.333,23.667 0.363,23.667 0.658 C 23.667 0.937,23.530 0.990,22.708 1.033 C 21.915 1.075,21.754 1.134,21.773 1.375 C 21.792 1.607,21.663 1.667,21.148 1.667 C 20.611 1.667,20.500 1.724,20.500 2.000 C 20.500 2.296,20.389 2.333,19.500 2.333 C 18.611 2.333,18.500 2.370,18.500 2.667 C 18.500 2.936,18.389 3.000,17.925 3.000 C 17.582 3.000,17.292 3.103,17.207 3.255 C 17.129 3.396,16.844 3.550,16.574 3.598 C 16.304 3.647,16.057 3.762,16.024 3.854 C 15.992 3.946,15.785 4.090,15.566 4.173 C 15.346 4.257,15.167 4.439,15.167 4.579 C 15.167 4.817,14.876 4.913,14.362 4.843 C 14.240 4.826,14.102 4.960,14.055 5.141 C 14.008 5.321,13.826 5.507,13.651 5.552 C 13.476 5.598,13.333 5.755,13.333 5.901 C 13.333 6.056,13.194 6.167,13.000 6.167 C 12.778 6.167,12.667 6.278,12.667 6.500 C 12.667 6.771,12.556 6.833,12.068 6.833 C 11.609 6.833,11.448 6.911,11.382 7.167 C 11.333 7.351,11.154 7.500,10.981 7.500 C 10.778 7.500,10.667 7.618,10.667 7.833 C 10.667 8.061,10.556 8.167,10.316 8.167 C 10.086 8.167,9.995 8.246,10.052 8.396 C 10.104 8.531,9.974 8.701,9.737 8.809 C 9.515 8.910,9.333 9.115,9.333 9.264 C 9.333 9.437,9.242 9.501,9.083 9.440 C 8.913 9.374,8.833 9.449,8.833 9.672 C 8.833 9.889,8.720 10.000,8.500 10.000 C 8.278 10.000,8.167 10.111,8.167 10.333 C 8.167 10.556,8.056 10.667,7.833 10.667 C 7.618 10.667,7.500 10.778,7.500 10.981 C 7.500 11.154,7.351 11.333,7.167 11.382 C 6.911 11.448,6.833 11.609,6.833 12.068 C 6.833 12.556,6.771 12.667,6.500 12.667 C 6.278 12.667,6.167 12.778,6.167 13.000 C 6.167 13.194,6.056 13.333,5.901 13.333 C 5.755 13.333,5.598 13.476,5.552 13.651 C 5.507 13.826,5.331 14.005,5.163 14.049 C 4.959 14.103,4.839 14.315,4.804 14.690 C 4.769 15.053,4.662 15.250,4.500 15.250 C 4.362 15.250,4.250 15.341,4.250 15.451 C 4.250 15.562,4.115 15.751,3.951 15.871 C 3.787 15.991,3.628 16.313,3.599 16.586 C 3.568 16.885,3.438 17.105,3.273 17.137 C 3.076 17.176,3.000 17.372,3.000 17.846 C 3.000 18.389,2.943 18.500,2.667 18.500 C 2.389 18.500,2.333 18.611,2.333 19.167 C 2.333 19.722,2.278 19.833,2.000 19.833 C 1.708 19.833,1.667 19.944,1.667 20.731 C 1.667 21.488,1.615 21.641,1.333 21.715 C 1.050 21.789,1.000 21.942,1.000 22.734 C 1.000 23.556,0.960 23.667,0.667 23.667 C 0.363 23.667,0.333 23.778,0.333 24.917 C 0.333 25.639,0.263 26.167,0.167 26.167 C 0.058 26.167,0.000 28.778,0.000 33.667 C 0.000 38.556,0.058 41.167,0.167 41.167 C 0.263 41.167,0.333 41.694,0.333 42.417 C 0.333 43.556,0.363 43.667,0.667 43.667 C 0.960 43.667,1.000 43.778,1.000 44.599 C 1.000 45.391,1.050 45.544,1.333 45.618 C 1.615 45.692,1.667 45.846,1.667 46.603 C 1.667 47.389,1.708 47.500,2.000 47.500 C 2.278 47.500,2.333 47.611,2.333 48.167 C 2.333 48.722,2.389 48.833,2.667 48.833 C 2.943 48.833,3.000 48.944,3.000 49.488 C 3.000 49.961,3.076 50.157,3.273 50.196 C 3.438 50.228,3.568 50.448,3.599 50.747 C 3.628 51.020,3.787 51.344,3.951 51.467 C 4.115 51.590,4.229 51.766,4.204 51.859 C 4.178 51.953,4.309 52.068,4.495 52.117 C 4.739 52.181,4.833 52.343,4.833 52.702 C 4.833 53.058,4.928 53.222,5.167 53.285 C 5.351 53.333,5.500 53.512,5.500 53.686 C 5.500 53.889,5.618 54.000,5.833 54.000 C 6.056 54.000,6.167 54.111,6.167 54.333 C 6.167 54.556,6.278 54.667,6.500 54.667 C 6.771 54.667,6.833 54.778,6.833 55.266 C 6.833 55.724,6.911 55.885,7.167 55.952 C 7.351 56.000,7.500 56.179,7.500 56.353 C 7.500 56.556,7.618 56.667,7.833 56.667 C 8.056 56.667,8.167 56.778,8.167 57.000 C 8.167 57.222,8.278 57.333,8.500 57.333 C 8.722 57.333,8.833 57.444,8.833 57.667 C 8.833 57.850,8.941 58.000,9.072 58.000 C 9.203 58.000,9.358 58.150,9.417 58.333 C 9.475 58.517,9.665 58.667,9.839 58.667 C 10.053 58.667,10.125 58.748,10.060 58.917 C 9.994 59.090,10.072 59.167,10.316 59.167 C 10.556 59.167,10.667 59.272,10.667 59.500 C 10.667 59.715,10.778 59.833,10.981 59.833 C 11.154 59.833,11.333 59.982,11.382 60.167 C 11.448 60.422,11.609 60.500,12.068 60.500 C 12.556 60.500,12.667 60.562,12.667 60.833 C 12.667 61.056,12.778 61.167,13.000 61.167 C 13.222 61.167,13.333 61.278,13.333 61.500 C 13.333 61.715,13.444 61.833,13.647 61.833 C 13.821 61.833,14.000 61.982,14.048 62.167 C 14.112 62.409,14.276 62.500,14.651 62.500 C 15.002 62.500,15.167 62.581,15.167 62.754 C 15.167 62.894,15.354 63.080,15.583 63.167 C 15.813 63.254,16.000 63.399,16.000 63.488 C 16.000 63.578,16.257 63.700,16.572 63.759 C 16.886 63.818,17.182 63.967,17.230 64.091 C 17.277 64.214,17.582 64.365,17.908 64.426 C 18.249 64.490,18.500 64.635,18.500 64.769 C 18.500 64.940,18.758 65.000,19.500 65.000 C 20.389 65.000,20.500 65.037,20.500 65.333 C 20.500 65.610,20.611 65.667,21.148 65.667 C 21.663 65.667,21.792 65.727,21.773 65.958 C 21.754 66.199,21.914 66.259,22.691 66.299 C 23.461 66.340,23.647 66.408,23.717 66.674 C 23.792 66.961,23.952 67.000,25.068 67.000 C 25.800 67.000,26.333 67.070,26.333 67.167 C 26.333 67.275,28.917 67.333,33.750 67.333 C 38.583 67.333,41.167 67.275,41.167 67.167 C 41.167 67.071,41.691 67.000,42.405 67.000 C 43.498 67.000,43.657 66.961,43.750 66.667 C 43.839 66.387,44.002 66.333,44.761 66.333 C 45.556 66.333,45.667 66.292,45.667 66.000 C 45.667 65.706,45.778 65.667,46.599 65.667 C 47.391 65.667,47.544 65.617,47.618 65.333 C 47.684 65.082,47.846 65.000,48.275 65.000 C 48.627 65.000,48.880 64.905,48.940 64.750 C 48.995 64.605,49.245 64.500,49.533 64.500 C 49.881 64.500,50.056 64.405,50.113 64.186 C 50.169 63.972,50.404 63.838,50.848 63.767 C 51.267 63.700,51.500 63.574,51.500 63.415 C 51.500 63.278,51.649 63.167,51.833 63.167 C 52.056 63.167,52.167 63.056,52.167 62.833 C 52.167 62.556,52.278 62.500,52.833 62.500 C 53.389 62.500,53.500 62.444,53.500 62.167 C 53.500 61.944,53.611 61.833,53.833 61.833 C 54.056 61.833,54.167 61.722,54.167 61.500 C 54.167 61.230,54.278 61.167,54.750 61.167 C 55.222 61.167,55.333 61.103,55.333 60.833 C 55.333 60.611,55.444 60.500,55.667 60.500 C 55.889 60.500,56.000 60.389,56.000 60.167 C 56.000 59.944,56.111 59.833,56.333 59.833 C 56.556 59.833,56.667 59.722,56.667 59.500 C 56.667 59.278,56.778 59.167,57.000 59.167 C 57.185 59.167,57.333 59.056,57.333 58.917 C 57.333 58.778,57.481 58.667,57.667 58.667 C 57.889 58.667,58.000 58.556,58.000 58.333 C 58.000 58.111,58.111 58.000,58.333 58.000 C 58.556 58.000,58.667 57.889,58.667 57.667 C 58.667 57.444,58.778 57.333,59.000 57.333 C 59.222 57.333,59.333 57.222,59.333 57.000 C 59.333 56.778,59.444 56.667,59.667 56.667 C 59.889 56.667,60.000 56.556,60.000 56.333 C 60.000 56.139,60.111 56.000,60.266 56.000 C 60.412 56.000,60.570 55.850,60.618 55.667 C 60.666 55.483,60.803 55.333,60.921 55.333 C 61.043 55.333,61.186 55.043,61.250 54.667 C 61.319 54.257,61.453 54.000,61.598 54.000 C 61.727 54.000,61.833 53.850,61.833 53.667 C 61.833 53.451,61.944 53.333,62.147 53.333 C 62.321 53.333,62.500 53.184,62.548 53.000 C 62.596 52.817,62.755 52.667,62.901 52.667 C 63.093 52.667,63.167 52.506,63.167 52.083 C 63.167 51.611,63.230 51.500,63.500 51.500 C 63.778 51.500,63.833 51.389,63.833 50.833 C 63.833 50.278,63.889 50.167,64.167 50.167 C 64.444 50.167,64.500 50.056,64.500 49.500 C 64.500 48.944,64.556 48.833,64.833 48.833 C 65.101 48.833,65.167 48.722,65.167 48.269 C 65.167 47.846,65.250 47.684,65.500 47.618 C 65.743 47.555,65.833 47.391,65.833 47.016 C 65.833 46.722,65.977 46.356,66.167 46.167 C 66.401 45.932,66.500 45.611,66.500 45.083 C 66.500 44.558,66.569 44.333,66.729 44.333 C 66.990 44.333,67.167 43.625,67.167 42.580 C 67.167 42.102,67.248 41.838,67.417 41.773 C 67.622 41.694,67.667 41.273,67.667 39.422 C 67.667 37.278,67.683 37.167,68.000 37.167 C 68.323 37.167,68.333 37.056,68.333 33.667 C 68.333 30.278,68.323 30.167,68.000 30.167 C 67.683 30.167,67.667 30.056,67.667 27.917 C 67.667 26.028,67.627 25.667,67.417 25.667 C 67.229 25.667,67.167 25.465,67.167 24.854 C 67.167 23.715,66.998 23.000,66.729 23.000 C 66.569 23.000,66.500 22.775,66.500 22.250 C 66.500 21.722,66.401 21.401,66.167 21.167 C 65.981 20.981,65.833 20.611,65.833 20.333 C 65.833 19.944,65.759 19.833,65.500 19.833 C 65.222 19.833,65.167 19.722,65.167 19.167 C 65.167 18.611,65.111 18.500,64.833 18.500 C 64.556 18.500,64.500 18.389,64.500 17.833 C 64.500 17.278,64.444 17.167,64.167 17.167 C 63.889 17.167,63.833 17.056,63.833 16.500 C 63.833 15.944,63.778 15.833,63.500 15.833 C 63.230 15.833,63.167 15.722,63.167 15.250 C 63.167 14.778,63.103 14.667,62.833 14.667 C 62.611 14.667,62.500 14.556,62.500 14.333 C 62.500 14.111,62.389 14.000,62.167 14.000 C 61.944 14.000,61.833 13.889,61.833 13.667 C 61.833 13.483,61.727 13.333,61.598 13.333 C 61.453 13.333,61.319 13.077,61.250 12.667 C 61.186 12.290,61.043 12.000,60.921 12.000 C 60.803 12.000,60.666 11.850,60.618 11.667 C 60.570 11.483,60.412 11.333,60.266 11.333 C 60.111 11.333,60.000 11.194,60.000 11.000 C 60.000 10.778,59.889 10.667,59.667 10.667 C 59.444 10.667,59.333 10.556,59.333 10.333 C 59.333 10.111,59.222 10.000,59.000 10.000 C 58.778 10.000,58.667 9.889,58.667 9.667 C 58.667 9.483,58.610 9.342,58.542 9.353 C 58.199 9.407,58.031 9.301,57.946 8.978 C 57.884 8.741,57.767 8.656,57.593 8.723 C 57.412 8.793,57.333 8.724,57.333 8.495 C 57.333 8.278,57.220 8.167,57.000 8.167 C 56.778 8.167,56.667 8.056,56.667 7.833 C 56.667 7.611,56.556 7.500,56.333 7.500 C 56.111 7.500,56.000 7.389,56.000 7.167 C 56.000 6.944,55.889 6.833,55.667 6.833 C 55.444 6.833,55.333 6.722,55.333 6.500 C 55.333 6.230,55.222 6.167,54.750 6.167 C 54.278 6.167,54.167 6.103,54.167 5.833 C 54.167 5.611,54.056 5.500,53.833 5.500 C 53.611 5.500,53.500 5.389,53.500 5.167 C 53.500 4.889,53.389 4.833,52.833 4.833 C 52.278 4.833,52.167 4.778,52.167 4.500 C 52.167 4.278,52.056 4.167,51.833 4.167 C 51.649 4.167,51.500 4.056,51.500 3.919 C 51.500 3.758,51.265 3.633,50.833 3.564 C 50.431 3.500,50.167 3.367,50.167 3.229 C 50.167 3.096,49.992 3.000,49.748 3.000 C 49.518 3.000,49.202 2.850,49.045 2.667 C 48.871 2.464,48.553 2.333,48.232 2.333 C 47.846 2.333,47.682 2.245,47.618 2.000 C 47.544 1.717,47.391 1.667,46.599 1.667 C 45.778 1.667,45.667 1.627,45.667 1.333 C 45.667 1.041,45.556 1.000,44.761 1.000 C 44.002 1.000,43.839 0.946,43.750 0.667 C 43.657 0.373,43.498 0.333,42.405 0.333 C 41.691 0.333,41.167 0.263,41.167 0.167 C 41.167 0.058,38.583 0.000,33.750 0.000 C 28.917 0.000,26.333 0.058,26.333 0.167 M40.204 18.895 C 40.330 19.020,40.616 19.180,40.841 19.251 C 41.996 19.613,43.458 21.559,43.715 23.075 C 43.956 24.499,44.064 50.569,43.830 51.005 C 43.416 51.781,43.420 51.785,36.019 44.498 C 33.698 42.213,34.196 42.145,31.120 45.167 C 25.079 51.102,24.601 51.519,24.151 51.240 C 23.867 51.065,23.969 22.805,24.255 22.426 C 24.390 22.249,24.500 21.977,24.500 21.822 C 24.500 21.464,26.466 19.404,26.943 19.261 C 27.141 19.202,27.394 19.044,27.505 18.910 C 27.796 18.559,39.854 18.545,40.204 18.895 " stroke="none" fill="#5464dc" fill-rule="evenodd"></path><path id="path1" d="M148.198 15.286 C 147.986 15.326,147.772 15.466,147.722 15.596 C 147.651 15.782,147.218 15.833,145.717 15.833 C 143.942 15.833,143.796 15.858,143.715 16.167 C 143.641 16.449,143.488 16.500,142.715 16.500 C 141.942 16.500,141.789 16.551,141.715 16.833 C 141.647 17.092,141.488 17.167,141.000 17.167 C 140.512 17.167,140.353 17.241,140.285 17.500 C 140.221 17.745,140.058 17.833,139.667 17.833 C 139.276 17.833,139.112 17.921,139.048 18.167 C 138.986 18.406,138.821 18.500,138.465 18.500 C 138.109 18.500,137.944 18.594,137.882 18.833 C 137.833 19.018,137.654 19.167,137.481 19.167 C 137.278 19.167,137.167 19.285,137.167 19.500 C 137.167 19.716,137.056 19.833,136.851 19.833 C 136.678 19.833,136.492 19.946,136.440 20.083 C 136.387 20.221,136.229 20.333,136.089 20.333 C 135.948 20.333,135.833 20.453,135.833 20.599 C 135.833 20.745,135.683 20.904,135.500 20.952 C 135.317 21.000,135.167 21.150,135.167 21.285 C 135.167 21.420,135.017 21.570,134.833 21.618 C 134.649 21.667,134.500 21.846,134.500 22.019 C 134.500 22.222,134.382 22.333,134.167 22.333 C 133.944 22.333,133.833 22.444,133.833 22.667 C 133.833 22.854,133.722 23.000,133.579 23.000 C 133.439 23.000,133.257 23.180,133.173 23.400 C 133.089 23.621,132.941 23.850,132.844 23.910 C 132.746 23.970,132.667 24.210,132.667 24.442 C 132.667 24.724,132.556 24.893,132.333 24.952 C 132.081 25.018,132.000 25.179,132.000 25.618 C 132.000 26.058,131.919 26.219,131.667 26.285 C 131.406 26.353,131.333 26.512,131.333 27.019 C 131.333 27.462,131.260 27.667,131.101 27.667 C 130.775 27.667,130.667 28.043,130.667 29.180 C 130.667 30.056,130.629 30.167,130.333 30.167 C 130.008 30.167,130.000 30.278,130.000 34.932 C 130.000 39.558,130.010 39.700,130.333 39.785 C 130.623 39.861,130.667 40.012,130.667 40.935 C 130.667 41.817,130.723 42.033,131.000 42.205 C 131.237 42.354,131.333 42.594,131.333 43.040 C 131.333 43.556,131.392 43.667,131.667 43.667 C 131.936 43.667,132.000 43.778,132.000 44.244 C 132.000 44.651,132.098 44.874,132.333 45.000 C 132.530 45.105,132.667 45.349,132.667 45.594 C 132.667 45.823,132.779 46.054,132.917 46.106 C 133.054 46.159,133.167 46.303,133.167 46.425 C 133.167 46.548,133.303 46.746,133.469 46.866 C 133.636 46.985,133.821 47.215,133.881 47.375 C 133.941 47.535,134.104 47.667,134.245 47.667 C 134.385 47.667,134.500 47.735,134.500 47.818 C 134.500 48.064,136.677 50.167,136.932 50.167 C 137.061 50.167,137.167 50.317,137.167 50.500 C 137.167 50.722,137.278 50.833,137.500 50.833 C 137.683 50.833,137.833 50.938,137.833 51.066 C 137.833 51.318,138.183 51.500,138.669 51.500 C 138.839 51.500,139.025 51.650,139.083 51.833 C 139.157 52.066,139.336 52.167,139.672 52.167 C 139.984 52.167,140.218 52.284,140.333 52.500 C 140.459 52.735,140.682 52.833,141.089 52.833 C 141.491 52.833,141.667 52.909,141.667 53.083 C 141.667 53.278,141.889 53.333,142.667 53.333 C 143.556 53.333,143.667 53.370,143.667 53.667 C 143.667 53.980,143.778 54.000,145.546 54.000 C 147.220 54.000,147.457 54.037,147.711 54.333 C 147.951 54.614,148.203 54.667,149.292 54.667 C 150.406 54.667,150.616 54.620,150.795 54.333 C 150.983 54.031,151.183 54.000,152.917 54.000 C 154.650 54.000,154.850 53.969,155.039 53.667 C 155.198 53.411,155.427 53.333,156.020 53.333 C 156.484 53.333,156.871 53.239,156.989 53.096 C 157.097 52.966,157.482 52.809,157.843 52.748 C 158.214 52.686,158.500 52.543,158.500 52.421 C 158.500 52.301,158.755 52.156,159.067 52.097 C 159.379 52.039,159.677 51.880,159.729 51.745 C 159.780 51.610,159.935 51.500,160.072 51.500 C 160.209 51.500,160.397 51.360,160.488 51.189 C 160.580 51.017,160.882 50.832,161.161 50.776 C 161.459 50.717,161.667 50.571,161.667 50.421 C 161.667 50.278,161.812 50.167,162.000 50.167 C 162.222 50.167,162.333 50.056,162.333 49.833 C 162.333 49.611,162.444 49.500,162.667 49.500 C 162.889 49.500,163.000 49.389,163.000 49.167 C 163.000 48.944,163.111 48.833,163.333 48.833 C 163.556 48.833,163.667 48.722,163.667 48.500 C 163.667 48.278,163.778 48.167,164.000 48.167 C 164.215 48.167,164.333 48.056,164.333 47.853 C 164.333 47.679,164.482 47.500,164.667 47.452 C 164.896 47.392,165.000 47.224,165.000 46.917 C 165.000 46.609,165.104 46.442,165.333 46.382 C 165.518 46.333,165.667 46.154,165.667 45.981 C 165.667 45.808,165.771 45.667,165.899 45.667 C 166.165 45.667,166.333 45.313,166.333 44.756 C 166.333 44.512,166.455 44.340,166.667 44.285 C 166.919 44.219,167.000 44.058,167.000 43.618 C 167.000 43.179,167.081 43.018,167.333 42.952 C 167.586 42.886,167.667 42.724,167.667 42.286 C 167.667 41.968,167.779 41.614,167.917 41.500 C 168.098 41.350,168.167 40.953,168.167 40.064 C 168.167 39.017,168.216 38.806,168.500 38.628 C 168.816 38.431,168.833 38.239,168.833 34.966 C 168.833 31.682,168.817 31.503,168.500 31.333 C 168.209 31.178,168.167 30.984,168.167 29.822 C 168.167 28.791,168.110 28.468,167.917 28.394 C 167.776 28.340,167.667 28.092,167.667 27.829 C 167.667 27.192,167.510 26.833,167.232 26.833 C 167.084 26.833,167.000 26.647,167.000 26.318 C 167.000 25.942,166.909 25.778,166.667 25.715 C 166.414 25.649,166.333 25.488,166.333 25.048 C 166.333 24.609,166.253 24.448,166.000 24.382 C 165.817 24.334,165.667 24.171,165.667 24.021 C 165.667 23.870,165.517 23.653,165.333 23.539 C 165.140 23.418,165.000 23.150,165.000 22.900 C 165.000 22.616,164.891 22.440,164.682 22.386 C 164.507 22.340,164.327 22.159,164.281 21.985 C 164.235 21.810,164.078 21.667,163.932 21.667 C 163.786 21.667,163.667 21.547,163.667 21.401 C 163.667 21.255,163.517 21.096,163.333 21.048 C 163.150 21.000,163.000 20.850,163.000 20.715 C 163.000 20.580,162.850 20.430,162.667 20.382 C 162.483 20.334,162.333 20.191,162.333 20.064 C 162.333 19.937,162.192 19.833,162.019 19.833 C 161.846 19.833,161.667 19.684,161.618 19.500 C 161.560 19.278,161.391 19.167,161.110 19.167 C 160.836 19.167,160.652 19.051,160.583 18.833 C 160.525 18.650,160.335 18.500,160.161 18.500 C 159.987 18.500,159.765 18.350,159.667 18.167 C 159.552 17.953,159.318 17.833,159.014 17.833 C 158.679 17.833,158.513 17.735,158.452 17.500 C 158.385 17.246,158.224 17.167,157.774 17.167 C 157.405 17.167,157.127 17.066,157.033 16.899 C 156.941 16.735,156.569 16.596,156.067 16.540 C 155.602 16.487,155.166 16.334,155.055 16.182 C 154.899 15.969,154.446 15.906,152.764 15.861 C 151.173 15.819,150.667 15.753,150.667 15.588 C 150.667 15.197,149.443 15.048,148.198 15.286 M189.698 15.286 C 189.486 15.326,189.272 15.466,189.222 15.596 C 189.151 15.782,188.718 15.833,187.217 15.833 C 185.442 15.833,185.296 15.858,185.215 16.167 C 185.141 16.449,184.988 16.500,184.215 16.500 C 183.442 16.500,183.289 16.551,183.215 16.833 C 183.147 17.093,182.988 17.167,182.492 17.167 C 182.002 17.167,181.831 17.243,181.750 17.500 C 181.675 17.737,181.498 17.833,181.140 17.833 C 180.776 17.833,180.611 17.926,180.548 18.167 C 180.486 18.406,180.321 18.500,179.965 18.500 C 179.609 18.500,179.444 18.594,179.382 18.833 C 179.333 19.018,179.154 19.167,178.981 19.167 C 178.778 19.167,178.667 19.285,178.667 19.500 C 178.667 19.722,178.556 19.833,178.333 19.833 C 178.148 19.833,178.000 19.944,178.000 20.083 C 178.000 20.222,177.852 20.333,177.667 20.333 C 177.473 20.333,177.333 20.444,177.333 20.599 C 177.333 20.745,177.183 20.904,177.000 20.952 C 176.817 21.000,176.667 21.150,176.667 21.285 C 176.667 21.420,176.517 21.570,176.333 21.618 C 176.149 21.667,176.000 21.846,176.000 22.019 C 176.000 22.222,175.882 22.333,175.667 22.333 C 175.444 22.333,175.333 22.444,175.333 22.667 C 175.333 22.854,175.222 23.000,175.079 23.000 C 174.939 23.000,174.757 23.180,174.673 23.400 C 174.589 23.621,174.447 23.847,174.356 23.902 C 174.266 23.958,174.143 24.228,174.083 24.502 C 174.023 24.776,173.867 25.000,173.737 25.000 C 173.576 25.000,173.500 25.193,173.500 25.599 C 173.500 26.058,173.422 26.218,173.167 26.285 C 172.906 26.353,172.833 26.512,172.833 27.019 C 172.833 27.462,172.760 27.667,172.601 27.667 C 172.275 27.667,172.167 28.043,172.167 29.180 C 172.167 30.056,172.129 30.167,171.833 30.167 C 171.508 30.167,171.500 30.278,171.500 34.932 C 171.500 39.558,171.510 39.700,171.833 39.785 C 172.123 39.861,172.167 40.012,172.167 40.935 C 172.167 41.817,172.223 42.033,172.500 42.205 C 172.737 42.354,172.833 42.594,172.833 43.040 C 172.833 43.556,172.892 43.667,173.167 43.667 C 173.437 43.667,173.500 43.778,173.500 44.255 C 173.500 44.614,173.594 44.880,173.740 44.936 C 173.872 44.986,174.029 45.252,174.089 45.525 C 174.149 45.799,174.304 46.063,174.432 46.112 C 174.561 46.162,174.667 46.309,174.667 46.440 C 174.667 46.570,174.785 46.723,174.929 46.778 C 175.074 46.833,175.260 47.056,175.342 47.273 C 175.424 47.489,175.606 47.667,175.746 47.667 C 175.886 47.667,176.000 47.736,176.000 47.820 C 176.000 48.067,177.504 49.500,177.763 49.500 C 177.893 49.500,178.000 49.650,178.000 49.833 C 178.000 50.056,178.111 50.167,178.333 50.167 C 178.556 50.167,178.667 50.278,178.667 50.500 C 178.667 50.722,178.778 50.833,179.000 50.833 C 179.183 50.833,179.333 50.938,179.333 51.066 C 179.333 51.317,179.682 51.500,180.161 51.500 C 180.326 51.500,180.500 51.650,180.548 51.833 C 180.611 52.075,180.776 52.167,181.145 52.167 C 181.484 52.167,181.715 52.278,181.833 52.500 C 181.959 52.735,182.182 52.833,182.589 52.833 C 182.991 52.833,183.167 52.909,183.167 53.083 C 183.167 53.278,183.389 53.333,184.167 53.333 C 185.056 53.333,185.167 53.370,185.167 53.667 C 185.167 53.980,185.278 54.000,187.046 54.000 C 188.720 54.000,188.957 54.037,189.211 54.333 C 189.451 54.614,189.703 54.667,190.792 54.667 C 191.906 54.667,192.116 54.620,192.295 54.333 C 192.483 54.031,192.683 54.000,194.417 54.000 C 196.150 54.000,196.350 53.969,196.539 53.667 C 196.698 53.411,196.927 53.333,197.520 53.333 C 197.984 53.333,198.371 53.239,198.489 53.096 C 198.597 52.966,198.982 52.809,199.343 52.748 C 199.714 52.686,200.000 52.543,200.000 52.421 C 200.000 52.301,200.262 52.155,200.583 52.094 C 200.933 52.029,201.167 51.888,201.167 51.742 C 201.167 51.609,201.314 51.500,201.494 51.500 C 201.674 51.500,201.897 51.360,201.988 51.189 C 202.080 51.017,202.382 50.832,202.661 50.776 C 202.959 50.717,203.167 50.571,203.167 50.421 C 203.167 50.278,203.312 50.167,203.500 50.167 C 203.722 50.167,203.833 50.056,203.833 49.833 C 203.833 49.611,203.944 49.500,204.167 49.500 C 204.389 49.500,204.500 49.389,204.500 49.167 C 204.500 48.944,204.611 48.833,204.833 48.833 C 205.056 48.833,205.167 48.722,205.167 48.500 C 205.167 48.278,205.278 48.167,205.500 48.167 C 205.715 48.167,205.833 48.056,205.833 47.853 C 205.833 47.679,205.982 47.500,206.167 47.452 C 206.396 47.392,206.500 47.224,206.500 46.917 C 206.500 46.609,206.604 46.442,206.833 46.382 C 207.018 46.333,207.167 46.154,207.167 45.981 C 207.167 45.808,207.271 45.667,207.399 45.667 C 207.665 45.667,207.833 45.313,207.833 44.756 C 207.833 44.512,207.955 44.340,208.167 44.285 C 208.422 44.218,208.500 44.058,208.500 43.599 C 208.500 43.178,208.574 43.000,208.750 43.000 C 208.928 43.000,209.000 42.819,209.000 42.373 C 209.000 41.927,209.096 41.687,209.333 41.539 C 209.618 41.361,209.667 41.150,209.667 40.083 C 209.667 39.017,209.715 38.806,210.000 38.628 C 210.316 38.431,210.333 38.239,210.333 34.966 C 210.333 31.682,210.317 31.503,210.000 31.333 C 209.709 31.178,209.667 30.984,209.667 29.812 C 209.667 28.609,209.632 28.460,209.333 28.382 C 209.064 28.311,209.000 28.154,209.000 27.564 C 209.000 27.026,208.934 26.833,208.750 26.833 C 208.582 26.833,208.500 26.665,208.500 26.318 C 208.500 25.942,208.409 25.778,208.167 25.715 C 207.914 25.649,207.833 25.488,207.833 25.048 C 207.833 24.609,207.753 24.448,207.500 24.382 C 207.316 24.333,207.167 24.154,207.167 23.981 C 207.167 23.808,207.062 23.667,206.934 23.667 C 206.677 23.667,206.500 23.316,206.500 22.804 C 206.500 22.614,206.362 22.433,206.182 22.386 C 206.007 22.340,205.827 22.159,205.781 21.985 C 205.735 21.810,205.578 21.667,205.432 21.667 C 205.286 21.667,205.167 21.547,205.167 21.401 C 205.167 21.255,205.017 21.096,204.833 21.048 C 204.650 21.000,204.500 20.850,204.500 20.715 C 204.500 20.580,204.350 20.430,204.167 20.382 C 203.983 20.334,203.833 20.191,203.833 20.064 C 203.833 19.937,203.692 19.833,203.519 19.833 C 203.346 19.833,203.167 19.684,203.118 19.500 C 203.060 19.278,202.891 19.167,202.610 19.167 C 202.336 19.167,202.152 19.051,202.083 18.833 C 202.025 18.650,201.835 18.500,201.661 18.500 C 201.487 18.500,201.265 18.350,201.167 18.167 C 201.052 17.953,200.818 17.833,200.514 17.833 C 200.179 17.833,200.013 17.735,199.952 17.500 C 199.885 17.246,199.724 17.167,199.274 17.167 C 198.905 17.167,198.627 17.066,198.533 16.899 C 198.441 16.735,198.069 16.596,197.567 16.540 C 197.102 16.487,196.666 16.334,196.555 16.182 C 196.399 15.969,195.946 15.906,194.264 15.861 C 192.673 15.819,192.167 15.753,192.167 15.588 C 192.167 15.197,190.943 15.048,189.698 15.286 M253.030 15.640 L 252.500 16.113 252.503 34.182 C 252.504 45.259,252.566 52.347,252.663 52.500 C 252.871 52.830,260.380 52.974,260.764 52.655 C 260.963 52.490,261.000 50.942,261.000 42.896 C 261.000 33.444,261.004 33.333,261.333 33.333 C 261.622 33.333,261.667 33.444,261.667 34.172 C 261.667 34.764,261.740 35.039,261.917 35.106 C 262.057 35.160,262.167 35.408,262.167 35.673 C 262.167 35.931,262.290 36.266,262.440 36.417 C 262.591 36.567,262.779 37.041,262.858 37.470 C 262.938 37.899,263.114 38.333,263.251 38.435 C 263.388 38.537,263.500 38.853,263.500 39.138 C 263.500 39.484,263.610 39.714,263.833 39.833 C 264.092 39.972,264.167 40.182,264.167 40.771 C 264.167 41.375,264.231 41.548,264.480 41.613 C 264.720 41.676,264.813 41.894,264.875 42.537 C 264.927 43.078,265.053 43.433,265.228 43.531 C 265.400 43.627,265.500 43.901,265.500 44.274 C 265.500 44.724,265.579 44.885,265.833 44.952 C 266.103 45.022,266.167 45.179,266.167 45.768 C 266.167 46.317,266.249 46.549,266.500 46.705 C 266.731 46.849,266.833 47.094,266.833 47.500 C 266.833 47.906,266.936 48.151,267.167 48.295 C 267.420 48.453,267.500 48.683,267.500 49.257 C 267.500 49.773,267.579 50.041,267.750 50.106 C 267.891 50.161,268.000 50.409,268.000 50.678 C 268.000 50.940,268.143 51.288,268.319 51.452 C 268.494 51.616,268.663 51.975,268.694 52.250 L 268.750 52.750 271.958 52.795 C 275.018 52.838,275.167 52.826,275.167 52.523 C 275.167 52.346,275.314 52.167,275.500 52.118 C 275.772 52.047,275.833 51.891,275.833 51.267 C 275.833 50.683,275.912 50.454,276.167 50.295 C 276.404 50.146,276.500 49.906,276.500 49.460 C 276.500 49.035,276.575 48.833,276.732 48.833 C 277.022 48.833,277.167 48.471,277.167 47.742 C 277.167 47.349,277.268 47.124,277.500 47.000 C 277.739 46.872,277.833 46.651,277.833 46.221 C 277.833 45.862,277.941 45.541,278.100 45.425 C 278.250 45.316,278.406 44.886,278.455 44.448 C 278.508 43.976,278.627 43.667,278.754 43.667 C 279.000 43.667,279.167 43.298,279.167 42.757 C 279.167 42.546,279.279 42.281,279.417 42.167 C 279.567 42.042,279.667 41.677,279.667 41.249 C 279.667 40.679,279.732 40.522,280.000 40.452 C 280.272 40.381,280.333 40.224,280.333 39.600 C 280.333 39.017,280.412 38.787,280.667 38.628 C 280.901 38.482,281.000 38.239,281.000 37.813 C 281.000 37.346,281.077 37.185,281.333 37.118 C 281.610 37.046,281.667 36.891,281.667 36.202 C 281.667 35.512,281.723 35.357,282.000 35.285 C 282.255 35.218,282.333 35.058,282.333 34.599 C 282.333 34.222,282.457 33.876,282.667 33.667 L 283.000 33.333 283.000 42.921 L 283.000 52.508 283.436 52.674 C 283.691 52.771,285.401 52.821,287.561 52.795 L 291.250 52.750 291.292 34.120 C 291.332 16.494,291.319 15.484,291.042 15.370 C 290.882 15.304,288.663 15.250,286.112 15.250 C 280.929 15.250,281.000 15.234,281.000 16.443 C 281.000 16.818,280.896 17.044,280.667 17.167 C 280.435 17.291,280.333 17.516,280.333 17.905 C 280.333 18.241,280.236 18.502,280.090 18.558 C 279.946 18.613,279.802 18.989,279.737 19.482 C 279.675 19.949,279.526 20.352,279.397 20.401 C 279.254 20.456,279.167 20.744,279.167 21.161 C 279.167 21.625,279.095 21.833,278.934 21.833 C 278.637 21.833,278.500 22.199,278.500 22.994 C 278.500 23.488,278.426 23.647,278.167 23.715 C 277.895 23.786,277.833 23.942,277.833 24.562 C 277.833 25.151,277.758 25.362,277.500 25.500 C 277.265 25.626,277.167 25.849,277.167 26.256 C 277.167 26.611,277.038 26.962,276.833 27.167 C 276.614 27.386,276.500 27.722,276.500 28.147 C 276.500 28.654,276.428 28.813,276.167 28.882 C 275.894 28.953,275.833 29.109,275.833 29.733 C 275.833 30.317,275.755 30.546,275.500 30.705 C 275.273 30.847,275.167 31.094,275.167 31.480 C 275.167 31.807,275.054 32.129,274.900 32.242 C 274.750 32.351,274.594 32.781,274.545 33.218 C 274.492 33.684,274.373 34.000,274.249 34.000 C 274.039 34.000,273.833 34.712,273.833 35.443 C 273.833 35.663,273.721 35.887,273.583 35.940 C 273.420 36.002,273.333 36.262,273.333 36.684 C 273.333 37.222,273.276 37.333,273.000 37.333 C 272.707 37.333,272.667 37.444,272.667 38.250 C 272.667 39.056,272.626 39.167,272.333 39.167 C 271.810 39.167,271.333 38.574,271.333 37.923 C 271.333 37.516,271.235 37.292,271.000 37.167 C 270.768 37.042,270.667 36.818,270.667 36.424 C 270.667 35.696,270.522 35.333,270.232 35.333 C 270.082 35.333,269.999 35.142,269.998 34.792 C 269.994 34.000,269.826 33.500,269.564 33.500 C 269.405 33.500,269.333 33.288,269.333 32.818 C 269.333 32.276,269.265 32.118,269.000 32.048 C 268.723 31.976,268.667 31.821,268.667 31.132 C 268.667 30.442,268.610 30.287,268.333 30.215 C 268.074 30.147,268.000 29.988,268.000 29.498 C 268.000 29.093,267.911 28.835,267.750 28.773 C 267.585 28.710,267.500 28.449,267.500 28.005 C 267.500 27.556,267.390 27.223,267.167 27.000 C 266.983 26.817,266.833 26.526,266.833 26.354 C 266.833 25.680,266.614 25.000,266.396 25.000 C 266.248 25.000,266.167 24.806,266.167 24.454 C 266.167 24.114,266.041 23.800,265.833 23.622 C 265.590 23.413,265.500 23.130,265.500 22.569 C 265.500 21.942,265.439 21.786,265.167 21.715 C 264.906 21.647,264.833 21.488,264.833 20.981 C 264.833 20.556,264.719 20.219,264.500 20.000 C 264.303 19.803,264.167 19.444,264.167 19.123 C 264.167 18.761,264.056 18.511,263.833 18.372 C 263.579 18.213,263.500 17.983,263.500 17.400 C 263.500 16.776,263.439 16.619,263.167 16.548 C 262.919 16.484,262.833 16.321,262.833 15.918 C 262.833 15.187,262.691 15.167,257.676 15.167 L 253.560 15.167 253.030 15.640 M309.500 15.315 C 309.183 15.402,309.071 15.558,309.031 15.965 C 309.000 16.285,308.849 16.569,308.656 16.672 C 308.405 16.807,308.333 17.024,308.333 17.653 C 308.333 18.321,308.276 18.476,308.000 18.548 C 307.723 18.621,307.667 18.776,307.667 19.465 C 307.667 20.154,307.610 20.309,307.333 20.382 C 307.068 20.451,307.000 20.609,307.000 21.151 C 307.000 21.621,306.928 21.833,306.769 21.833 C 306.507 21.833,306.339 22.333,306.336 23.125 C 306.334 23.476,306.252 23.667,306.101 23.667 C 305.794 23.667,305.667 24.036,305.667 24.930 C 305.667 25.556,305.616 25.667,305.333 25.667 C 305.063 25.667,305.000 25.778,305.000 26.250 C 305.000 26.611,304.873 26.960,304.667 27.167 C 304.455 27.378,304.333 27.722,304.333 28.107 C 304.333 28.475,304.227 28.791,304.062 28.912 C 303.895 29.033,303.758 29.446,303.707 29.972 C 303.655 30.510,303.545 30.833,303.414 30.833 C 303.298 30.833,303.152 31.107,303.090 31.441 C 303.027 31.775,302.869 32.155,302.738 32.286 C 302.605 32.418,302.500 32.842,302.500 33.242 C 302.500 33.821,302.435 33.978,302.167 34.048 C 301.883 34.122,301.833 34.276,301.833 35.068 C 301.833 35.889,301.794 36.000,301.500 36.000 C 301.230 36.000,301.167 36.111,301.167 36.583 C 301.167 36.944,301.040 37.294,300.833 37.500 C 300.618 37.715,300.500 38.056,300.500 38.460 C 300.500 38.906,300.404 39.146,300.167 39.295 C 299.906 39.458,299.833 39.683,299.833 40.335 C 299.833 41.056,299.789 41.167,299.500 41.167 C 299.228 41.167,299.167 41.278,299.167 41.773 C 299.167 42.132,299.060 42.458,298.906 42.571 C 298.762 42.676,298.603 43.097,298.553 43.506 C 298.502 43.915,298.346 44.341,298.207 44.453 C 298.065 44.565,297.916 45.026,297.872 45.494 C 297.822 46.009,297.711 46.333,297.583 46.333 C 297.469 46.333,297.330 46.624,297.273 46.978 C 297.216 47.333,297.056 47.717,296.918 47.832 C 296.765 47.959,296.667 48.322,296.667 48.759 C 296.667 49.331,296.599 49.499,296.333 49.583 C 296.055 49.672,296.000 49.836,296.000 50.575 C 296.000 51.321,295.947 51.475,295.667 51.548 C 295.152 51.683,295.218 52.464,295.761 52.671 C 295.996 52.760,298.018 52.833,300.261 52.833 L 304.333 52.833 304.333 52.186 C 304.333 51.679,304.406 51.520,304.667 51.452 C 304.939 51.381,305.000 51.224,305.000 50.600 C 305.000 50.017,305.079 49.787,305.333 49.628 C 305.590 49.468,305.667 49.239,305.667 48.632 C 305.667 48.016,305.739 47.806,306.000 47.667 C 306.235 47.541,306.333 47.318,306.333 46.911 C 306.333 46.556,306.462 46.205,306.667 46.000 C 306.889 45.778,307.000 45.444,307.000 45.000 L 307.000 44.333 313.500 44.333 C 319.889 44.333,320.000 44.339,320.000 44.667 C 320.000 44.889,320.111 45.000,320.333 45.000 C 320.625 45.000,320.667 45.111,320.667 45.899 C 320.667 46.503,320.741 46.826,320.893 46.885 C 321.021 46.934,321.159 47.321,321.210 47.767 C 321.259 48.205,321.408 48.643,321.540 48.740 C 321.673 48.837,321.823 49.287,321.874 49.740 C 321.925 50.193,322.074 50.643,322.206 50.740 C 322.338 50.837,322.491 51.252,322.545 51.661 C 322.704 52.848,322.690 52.845,327.411 52.794 L 331.583 52.750 331.633 51.885 C 331.676 51.155,331.630 50.992,331.342 50.838 C 331.076 50.695,331.000 50.490,331.000 49.912 C 331.000 49.350,330.919 49.119,330.667 48.961 C 330.431 48.814,330.333 48.573,330.333 48.140 C 330.333 47.365,330.194 47.000,329.899 47.000 C 329.742 47.000,329.667 46.798,329.667 46.373 C 329.667 45.927,329.571 45.687,329.333 45.539 C 329.079 45.380,329.000 45.150,329.000 44.566 C 329.000 43.942,328.939 43.786,328.667 43.715 C 328.406 43.647,328.333 43.488,328.333 42.981 C 328.333 42.556,328.219 42.219,328.000 42.000 C 327.803 41.803,327.667 41.444,327.667 41.123 C 327.667 40.761,327.556 40.511,327.333 40.372 C 327.072 40.209,327.000 39.983,327.000 39.332 C 327.000 38.704,326.939 38.500,326.750 38.500 C 326.577 38.500,326.500 38.327,326.500 37.939 C 326.500 37.631,326.350 37.188,326.167 36.955 C 325.983 36.721,325.833 36.301,325.833 36.021 C 325.833 35.682,325.722 35.452,325.500 35.333 C 325.234 35.191,325.167 34.984,325.167 34.312 C 325.167 33.609,325.111 33.454,324.833 33.382 C 324.572 33.313,324.500 33.154,324.500 32.647 C 324.500 32.222,324.386 31.886,324.167 31.667 C 323.970 31.470,323.833 31.111,323.833 30.790 C 323.833 30.427,323.723 30.178,323.500 30.039 C 323.245 29.880,323.167 29.650,323.167 29.066 C 323.167 28.442,323.106 28.286,322.833 28.215 C 322.564 28.145,322.500 27.988,322.500 27.399 C 322.500 26.850,322.417 26.618,322.167 26.461 C 321.936 26.317,321.833 26.073,321.833 25.667 C 321.833 25.261,321.731 25.016,321.500 24.872 C 321.239 24.709,321.167 24.483,321.167 23.832 C 321.167 23.239,321.101 23.000,320.938 23.000 C 320.790 23.000,320.679 22.726,320.622 22.218 C 320.573 21.781,320.416 21.351,320.267 21.242 C 320.120 21.134,320.000 20.823,320.000 20.549 C 320.000 20.263,319.858 19.923,319.667 19.750 C 319.463 19.566,319.333 19.237,319.333 18.904 C 319.333 18.195,319.187 17.833,318.899 17.833 C 318.739 17.833,318.667 17.625,318.667 17.167 C 318.667 16.722,318.556 16.389,318.333 16.167 C 318.150 15.983,318.000 15.729,318.000 15.601 C 318.000 15.473,317.881 15.323,317.736 15.268 C 317.376 15.130,310.019 15.172,309.500 15.315 M336.541 15.339 L 336.165 15.490 336.208 34.120 L 336.250 52.750 340.083 52.750 L 343.917 52.750 343.960 45.951 L 344.004 39.152 345.210 39.201 L 346.417 39.250 346.470 39.810 C 346.507 40.196,346.624 40.397,346.845 40.455 C 347.022 40.501,347.167 40.640,347.167 40.764 C 347.167 40.887,347.317 41.069,347.500 41.167 C 347.718 41.283,347.833 41.516,347.833 41.839 C 347.833 42.222,347.908 42.333,348.167 42.333 C 348.389 42.333,348.500 42.444,348.500 42.667 C 348.500 42.889,348.611 43.000,348.833 43.000 C 349.105 43.000,349.167 43.111,349.167 43.599 C 349.167 44.058,349.245 44.218,349.500 44.285 C 349.684 44.333,349.833 44.512,349.833 44.686 C 349.833 44.859,349.940 45.000,350.070 45.000 C 350.200 45.000,350.357 45.230,350.419 45.511 C 350.481 45.792,350.637 46.063,350.766 46.112 C 350.895 46.162,351.000 46.351,351.000 46.533 C 351.000 46.724,351.141 46.901,351.333 46.952 C 351.517 47.000,351.667 47.140,351.667 47.264 C 351.667 47.387,351.817 47.569,352.000 47.667 C 352.200 47.774,352.333 48.016,352.333 48.271 C 352.333 48.558,352.443 48.727,352.667 48.785 C 352.850 48.833,353.000 48.995,353.000 49.146 C 353.000 49.297,353.150 49.513,353.333 49.628 C 353.527 49.749,353.667 50.017,353.667 50.267 C 353.667 50.558,353.775 50.726,354.000 50.785 C 354.183 50.833,354.333 51.008,354.333 51.175 C 354.333 51.341,354.483 51.525,354.667 51.583 C 354.881 51.651,355.000 51.836,355.000 52.099 C 355.000 52.750,355.548 52.833,359.833 52.833 C 364.639 52.833,365.574 52.539,364.333 51.417 C 364.150 51.251,364.000 50.932,364.000 50.709 C 364.000 50.442,363.885 50.272,363.667 50.215 C 363.483 50.167,363.333 49.992,363.333 49.825 C 363.333 49.659,363.183 49.475,363.000 49.417 C 362.766 49.343,362.667 49.164,362.667 48.822 C 362.667 48.444,362.591 48.333,362.333 48.333 C 362.111 48.333,362.000 48.222,362.000 48.000 C 362.000 47.817,361.896 47.667,361.769 47.667 C 361.635 47.667,361.490 47.415,361.426 47.075 C 361.365 46.749,361.207 46.441,361.074 46.390 C 360.942 46.339,360.833 46.186,360.833 46.050 C 360.833 45.914,360.683 45.763,360.500 45.715 C 360.317 45.667,360.167 45.495,360.167 45.333 C 360.167 45.171,360.017 45.000,359.833 44.952 C 359.588 44.888,359.500 44.724,359.500 44.333 C 359.500 43.942,359.412 43.779,359.167 43.715 C 358.983 43.667,358.833 43.527,358.833 43.403 C 358.833 43.280,358.683 43.098,358.500 43.000 C 358.282 42.883,358.167 42.651,358.167 42.327 C 358.167 41.944,358.092 41.833,357.833 41.833 C 357.611 41.833,357.500 41.722,357.500 41.500 C 357.500 41.278,357.389 41.167,357.167 41.167 C 356.895 41.167,356.833 41.056,356.833 40.568 C 356.833 40.109,356.755 39.948,356.500 39.882 C 356.316 39.833,356.167 39.654,356.167 39.481 C 356.167 39.308,356.054 39.167,355.917 39.167 C 355.779 39.167,355.667 39.057,355.667 38.923 C 355.667 38.788,355.517 38.598,355.333 38.500 C 354.781 38.205,354.921 37.833,355.583 37.833 C 356.056 37.833,356.167 37.770,356.167 37.500 C 356.167 37.242,356.278 37.167,356.661 37.167 C 356.984 37.167,357.217 37.052,357.333 36.833 C 357.431 36.650,357.659 36.500,357.839 36.500 C 358.019 36.500,358.167 36.387,358.167 36.250 C 358.167 36.111,358.315 36.000,358.500 36.000 C 358.715 36.000,358.833 35.889,358.833 35.686 C 358.833 35.512,358.982 35.333,359.167 35.285 C 359.350 35.237,359.500 35.078,359.500 34.932 C 359.500 34.778,359.639 34.667,359.833 34.667 C 360.049 34.667,360.167 34.556,360.167 34.353 C 360.167 34.179,360.316 34.000,360.500 33.952 C 360.683 33.904,360.833 33.745,360.833 33.599 C 360.833 33.453,360.983 33.183,361.167 33.000 C 361.350 32.817,361.500 32.526,361.500 32.354 C 361.500 32.182,361.613 31.947,361.750 31.833 C 361.924 31.689,362.000 31.307,362.000 30.582 C 362.000 29.679,362.045 29.527,362.333 29.452 C 362.641 29.371,362.667 29.224,362.667 27.521 C 362.667 25.849,362.636 25.662,362.333 25.500 C 362.050 25.348,362.000 25.151,362.000 24.179 C 362.000 23.316,361.939 23.012,361.750 22.940 C 361.605 22.884,361.500 22.635,361.500 22.344 C 361.500 22.016,361.386 21.784,361.167 21.667 C 360.945 21.548,360.833 21.318,360.833 20.979 C 360.833 20.609,360.742 20.445,360.500 20.382 C 360.317 20.334,360.167 20.234,360.167 20.160 C 360.167 19.927,358.651 18.500,358.404 18.500 C 358.273 18.500,358.167 18.350,358.167 18.167 C 358.167 17.951,358.056 17.833,357.853 17.833 C 357.679 17.833,357.500 17.684,357.452 17.500 C 357.385 17.245,357.224 17.167,356.766 17.167 C 356.278 17.167,356.167 17.105,356.167 16.833 C 356.167 16.563,356.056 16.500,355.583 16.500 C 355.222 16.500,354.873 16.373,354.667 16.167 C 354.378 15.878,354.111 15.833,352.667 15.833 C 351.353 15.833,351.000 15.784,351.000 15.601 C 351.000 15.473,350.881 15.323,350.736 15.268 C 350.314 15.106,336.955 15.172,336.541 15.339 M369.199 15.285 C 368.985 15.326,368.746 15.542,368.658 15.774 C 368.375 16.516,368.452 52.419,368.736 52.655 C 369.120 52.974,376.629 52.830,376.837 52.500 C 376.928 52.356,376.996 49.929,376.997 46.776 C 377.000 41.443,377.009 41.300,377.333 41.215 C 377.517 41.167,377.667 41.027,377.667 40.903 C 377.667 40.780,377.817 40.598,378.000 40.500 C 378.183 40.402,378.333 40.220,378.333 40.097 C 378.333 39.973,378.483 39.833,378.667 39.785 C 378.850 39.737,379.000 39.578,379.000 39.432 C 379.000 39.286,379.113 39.167,379.250 39.167 C 379.387 39.167,379.500 39.025,379.500 38.853 C 379.500 38.654,379.646 38.511,379.901 38.462 C 380.419 38.363,380.833 38.600,380.833 38.995 C 380.833 39.471,381.012 39.833,381.248 39.833 C 381.365 39.833,381.500 39.983,381.548 40.167 C 381.596 40.350,381.755 40.500,381.901 40.500 C 382.087 40.500,382.167 40.655,382.167 41.016 C 382.167 41.391,382.257 41.555,382.500 41.618 C 382.684 41.667,382.833 41.846,382.833 42.019 C 382.833 42.222,382.951 42.333,383.167 42.333 C 383.374 42.333,383.500 42.444,383.500 42.627 C 383.500 42.788,383.650 43.013,383.833 43.128 C 384.046 43.261,384.167 43.517,384.167 43.835 C 384.167 44.222,384.241 44.333,384.500 44.333 C 384.707 44.333,384.833 44.444,384.833 44.627 C 384.833 44.788,384.983 45.013,385.167 45.128 C 385.355 45.246,385.500 45.517,385.500 45.751 C 385.500 46.009,385.595 46.167,385.750 46.167 C 385.893 46.167,386.000 46.317,386.000 46.516 C 386.000 46.721,386.133 46.899,386.324 46.949 C 386.509 46.998,386.692 47.235,386.751 47.503 C 386.807 47.761,386.962 48.014,387.094 48.064 C 387.225 48.115,387.333 48.309,387.333 48.495 C 387.333 48.722,387.443 48.833,387.667 48.833 C 387.874 48.833,388.000 48.944,388.000 49.127 C 388.000 49.288,388.150 49.513,388.333 49.628 C 388.527 49.749,388.667 50.017,388.667 50.267 C 388.667 50.558,388.775 50.726,389.000 50.785 C 389.183 50.833,389.333 51.008,389.333 51.175 C 389.333 51.341,389.483 51.525,389.667 51.583 C 389.881 51.651,390.000 51.836,390.000 52.099 C 390.000 52.758,390.537 52.833,395.261 52.833 L 399.667 52.833 399.667 51.668 C 399.667 50.683,399.615 50.471,399.333 50.295 C 399.150 50.180,399.000 49.955,399.000 49.793 C 399.000 49.611,398.874 49.500,398.667 49.500 C 398.448 49.500,398.333 49.389,398.333 49.178 C 398.333 49.001,398.183 48.808,398.000 48.750 C 397.766 48.676,397.667 48.498,397.667 48.155 C 397.667 47.778,397.591 47.667,397.333 47.667 C 397.117 47.667,397.000 47.556,397.000 47.351 C 397.000 47.178,396.895 46.995,396.766 46.946 C 396.637 46.896,396.480 46.621,396.417 46.333 C 396.354 46.046,396.204 45.773,396.084 45.727 C 395.964 45.681,395.828 45.499,395.782 45.322 C 395.736 45.145,395.578 45.000,395.432 45.000 C 395.283 45.000,395.167 44.862,395.167 44.686 C 395.167 44.512,395.018 44.333,394.833 44.285 C 394.593 44.222,394.500 44.058,394.500 43.694 C 394.500 43.336,394.403 43.158,394.167 43.083 C 393.983 43.025,393.833 42.873,393.833 42.745 C 393.833 42.617,393.683 42.431,393.500 42.333 C 393.300 42.226,393.167 41.984,393.167 41.729 C 393.167 41.442,393.057 41.273,392.833 41.215 C 392.649 41.167,392.500 40.988,392.500 40.814 C 392.500 40.611,392.382 40.500,392.167 40.500 C 391.905 40.500,391.833 40.389,391.833 39.984 C 391.833 39.609,391.743 39.445,391.500 39.382 C 391.284 39.325,391.167 39.154,391.167 38.897 C 391.167 38.655,391.069 38.500,390.917 38.500 C 390.779 38.500,390.667 38.390,390.667 38.256 C 390.667 38.122,390.527 37.937,390.355 37.845 C 390.184 37.753,389.999 37.451,389.943 37.173 C 389.883 36.875,389.737 36.667,389.587 36.667 C 389.444 36.667,389.333 36.521,389.333 36.333 C 389.333 36.118,389.222 36.000,389.019 36.000 C 388.792 36.000,388.674 35.840,388.597 35.433 C 388.539 35.121,388.380 34.823,388.245 34.771 C 388.110 34.720,388.000 34.525,388.000 34.339 C 388.000 34.111,387.891 34.000,387.667 34.000 C 387.460 34.000,387.333 33.889,387.333 33.707 C 387.333 33.545,387.183 33.320,387.000 33.205 C 386.816 33.090,386.667 32.817,386.667 32.593 C 386.667 32.343,386.546 32.151,386.351 32.089 C 385.769 31.904,385.832 30.833,386.425 30.833 C 386.558 30.833,386.667 30.683,386.667 30.500 C 386.667 30.278,386.778 30.167,387.000 30.167 C 387.222 30.167,387.333 30.056,387.333 29.833 C 387.333 29.611,387.444 29.500,387.667 29.500 C 387.889 29.500,388.000 29.389,388.000 29.167 C 388.000 28.978,388.111 28.833,388.255 28.833 C 388.396 28.833,388.561 28.702,388.622 28.542 C 388.683 28.381,388.967 28.025,389.252 27.750 C 389.537 27.475,389.868 27.006,389.989 26.708 C 390.109 26.410,390.305 26.167,390.426 26.167 C 390.546 26.167,390.692 26.017,390.750 25.833 C 390.808 25.650,390.926 25.500,391.011 25.500 C 391.097 25.500,391.167 25.387,391.167 25.250 C 391.167 25.111,391.315 25.000,391.500 25.000 C 391.722 25.000,391.833 24.889,391.833 24.667 C 391.833 24.444,391.944 24.333,392.167 24.333 C 392.382 24.333,392.500 24.222,392.500 24.019 C 392.500 23.846,392.649 23.667,392.833 23.618 C 393.017 23.570,393.167 23.412,393.167 23.266 C 393.167 23.120,393.282 23.000,393.422 23.000 C 393.562 23.000,393.726 22.869,393.786 22.708 C 393.846 22.548,394.031 22.319,394.197 22.199 C 394.364 22.079,394.500 21.849,394.500 21.687 C 394.500 21.526,394.688 21.230,394.917 21.031 C 395.146 20.832,395.333 20.593,395.333 20.501 C 395.333 20.409,395.446 20.333,395.583 20.333 C 395.722 20.333,395.833 20.185,395.833 20.000 C 395.833 19.778,395.944 19.667,396.167 19.667 C 396.352 19.667,396.500 19.556,396.500 19.417 C 396.500 19.279,396.613 19.167,396.750 19.167 C 396.887 19.167,397.000 19.025,397.000 18.853 C 397.000 18.679,397.149 18.500,397.333 18.452 C 397.517 18.404,397.667 18.254,397.667 18.118 C 397.667 17.983,397.817 17.833,398.000 17.785 C 398.447 17.668,398.509 15.436,398.070 15.268 C 397.726 15.136,389.941 15.136,389.597 15.268 C 389.452 15.323,389.333 15.473,389.333 15.601 C 389.333 15.729,389.183 15.833,389.000 15.833 C 388.778 15.833,388.667 15.944,388.667 16.167 C 388.667 16.361,388.556 16.500,388.401 16.500 C 388.255 16.500,388.096 16.650,388.048 16.833 C 388.000 17.017,387.850 17.167,387.715 17.167 C 387.580 17.167,387.430 17.317,387.382 17.500 C 387.334 17.683,387.228 17.833,387.146 17.833 C 387.064 17.833,386.877 18.133,386.731 18.500 C 386.584 18.867,386.390 19.167,386.300 19.167 C 386.086 19.167,385.513 19.858,385.506 20.125 C 385.502 20.240,385.350 20.333,385.167 20.333 C 384.951 20.333,384.833 20.444,384.833 20.647 C 384.833 20.821,384.684 21.000,384.500 21.048 C 384.317 21.096,384.167 21.255,384.167 21.401 C 384.167 21.547,384.052 21.667,383.911 21.667 C 383.771 21.667,383.607 21.798,383.547 21.958 C 383.488 22.119,383.302 22.348,383.136 22.468 C 382.970 22.588,382.833 22.816,382.833 22.975 C 382.833 23.134,382.533 23.540,382.167 23.877 C 381.800 24.214,381.500 24.604,381.500 24.745 C 381.500 24.889,381.355 25.000,381.167 25.000 C 380.944 25.000,380.833 25.111,380.833 25.333 C 380.833 25.517,380.748 25.667,380.644 25.667 C 380.420 25.667,379.760 26.349,379.613 26.732 C 379.557 26.879,379.396 27.000,379.255 27.000 C 379.094 27.000,379.000 27.153,379.000 27.415 C 379.000 27.650,378.855 27.921,378.667 28.039 C 378.483 28.153,378.333 28.379,378.333 28.540 C 378.333 28.722,378.207 28.833,378.000 28.833 C 377.778 28.833,377.667 28.944,377.667 29.167 C 377.667 29.389,377.556 29.500,377.333 29.500 C 377.006 29.500,377.000 29.389,377.000 22.807 L 377.000 16.113 376.470 15.640 L 375.940 15.167 372.762 15.189 C 371.014 15.202,369.411 15.245,369.199 15.285 M99.500 34.917 L 99.500 53.333 109.232 53.333 C 117.729 53.333,118.977 53.302,119.060 53.083 C 119.120 52.928,119.374 52.833,119.731 52.833 C 120.470 52.833,120.833 52.690,120.833 52.399 C 120.833 52.243,121.031 52.167,121.432 52.167 C 121.891 52.167,122.052 52.089,122.118 51.833 C 122.167 51.649,122.346 51.500,122.519 51.500 C 122.692 51.500,122.983 51.350,123.167 51.167 C 123.350 50.983,123.549 50.833,123.610 50.833 C 123.897 50.833,125.353 49.112,125.441 48.668 C 125.510 48.325,125.640 48.167,125.854 48.167 C 126.087 48.167,126.167 48.045,126.167 47.687 C 126.167 47.423,126.279 47.114,126.417 47.000 C 126.591 46.855,126.667 46.471,126.667 45.731 C 126.667 44.850,126.723 44.634,127.000 44.461 C 127.293 44.279,127.333 44.073,127.333 42.778 C 127.333 41.442,127.302 41.294,127.000 41.215 C 126.707 41.138,126.667 40.988,126.667 39.975 C 126.667 39.105,126.606 38.799,126.417 38.727 C 126.279 38.674,126.167 38.516,126.167 38.376 C 126.167 38.236,125.979 37.948,125.750 37.735 C 125.521 37.523,125.333 37.204,125.333 37.027 C 125.333 36.846,125.188 36.668,125.000 36.618 C 124.817 36.570,124.667 36.412,124.667 36.266 C 124.667 36.120,124.559 36.000,124.428 36.000 C 124.297 36.000,124.142 35.850,124.083 35.667 C 124.016 35.454,123.831 35.333,123.574 35.333 C 123.350 35.333,123.076 35.184,122.961 35.000 C 122.847 34.817,122.619 34.667,122.455 34.667 C 122.291 34.667,122.113 34.554,122.060 34.417 C 122.008 34.279,121.841 34.160,121.691 34.152 C 121.540 34.143,121.667 34.065,121.972 33.977 C 122.278 33.889,122.787 33.558,123.103 33.242 C 123.419 32.925,123.752 32.667,123.843 32.667 C 123.934 32.667,124.055 32.436,124.111 32.153 C 124.167 31.871,124.353 31.553,124.523 31.447 C 124.702 31.335,124.833 31.061,124.833 30.799 C 124.833 30.516,124.959 30.278,125.167 30.167 C 125.442 30.019,125.500 29.818,125.500 29.012 C 125.500 28.337,125.571 28.008,125.729 27.948 C 126.244 27.750,126.251 25.000,125.737 25.000 C 125.558 25.000,125.500 24.753,125.500 24.000 C 125.500 23.222,125.426 22.926,125.167 22.667 C 124.983 22.483,124.833 22.183,124.833 22.000 C 124.833 21.817,124.683 21.517,124.500 21.333 C 124.317 21.150,124.167 20.893,124.167 20.761 C 124.167 20.630,124.017 20.475,123.833 20.417 C 123.650 20.358,123.500 20.203,123.500 20.072 C 123.500 19.941,123.350 19.833,123.167 19.833 C 122.944 19.833,122.833 19.722,122.833 19.500 C 122.833 19.278,122.722 19.167,122.500 19.167 C 122.278 19.167,122.167 19.056,122.167 18.833 C 122.167 18.574,122.056 18.500,121.668 18.500 C 121.350 18.500,121.094 18.379,120.961 18.167 C 120.847 17.983,120.659 17.833,120.543 17.833 C 120.428 17.833,120.183 17.683,120.000 17.500 C 119.785 17.285,119.444 17.167,119.040 17.167 C 118.594 17.167,118.354 17.071,118.205 16.833 C 118.001 16.507,117.817 16.500,108.749 16.500 L 99.500 16.500 99.500 34.917 M215.111 16.611 C 215.050 16.672,215.000 24.960,215.000 35.028 L 215.000 53.333 219.167 53.333 L 223.333 53.333 223.333 47.833 C 223.333 42.444,223.340 42.333,223.667 42.333 C 223.889 42.333,224.000 42.222,224.000 42.000 C 224.000 41.806,224.111 41.667,224.266 41.667 C 224.412 41.667,224.570 41.517,224.618 41.333 C 224.666 41.150,224.803 41.000,224.923 41.000 C 225.042 41.000,225.192 40.766,225.254 40.480 C 225.322 40.172,225.497 39.926,225.684 39.877 C 225.858 39.832,226.000 39.688,226.000 39.559 C 226.000 39.429,226.112 39.280,226.250 39.227 C 226.387 39.174,226.509 38.970,226.519 38.774 C 226.538 38.436,226.543 38.435,226.621 38.750 C 226.667 38.933,226.802 39.140,226.922 39.209 C 227.042 39.279,227.190 39.559,227.250 39.833 C 227.310 40.107,227.453 40.388,227.567 40.457 C 227.682 40.527,227.823 40.715,227.882 40.875 C 227.941 41.035,228.098 41.167,228.232 41.167 C 228.366 41.167,228.523 41.394,228.586 41.678 C 228.648 41.959,228.804 42.230,228.932 42.279 C 229.061 42.329,229.167 42.511,229.167 42.684 C 229.167 42.889,229.284 43.000,229.500 43.000 C 229.707 43.000,229.833 43.111,229.833 43.293 C 229.833 43.455,229.983 43.680,230.167 43.795 C 230.379 43.927,230.500 44.183,230.500 44.501 C 230.500 44.889,230.574 45.000,230.833 45.000 C 231.040 45.000,231.167 45.111,231.167 45.293 C 231.167 45.455,231.317 45.680,231.500 45.795 C 231.683 45.909,231.833 46.181,231.833 46.399 C 231.833 46.654,231.951 46.825,232.167 46.882 C 232.366 46.934,232.500 47.109,232.500 47.318 C 232.500 47.510,232.596 47.667,232.713 47.667 C 232.831 47.667,233.020 47.873,233.133 48.125 C 233.560 49.071,233.859 49.500,234.092 49.500 C 234.225 49.500,234.333 49.641,234.333 49.814 C 234.333 49.988,234.482 50.167,234.667 50.215 C 234.907 50.278,235.000 50.442,235.000 50.806 C 235.000 51.164,235.097 51.342,235.333 51.417 C 235.517 51.475,235.667 51.667,235.667 51.845 C 235.667 52.052,235.782 52.167,235.989 52.167 C 236.232 52.167,236.325 52.302,236.364 52.708 L 236.417 53.250 241.542 53.294 L 246.667 53.338 246.667 52.820 C 246.667 52.442,246.576 52.279,246.333 52.215 C 246.081 52.149,246.000 51.988,246.000 51.548 C 246.000 51.109,245.919 50.948,245.667 50.882 C 245.482 50.833,245.333 50.654,245.333 50.481 C 245.333 50.278,245.215 50.167,245.000 50.167 C 244.784 50.167,244.667 50.056,244.667 49.851 C 244.667 49.678,244.565 49.497,244.440 49.449 C 244.316 49.401,244.168 49.131,244.111 48.848 C 244.050 48.543,243.905 48.333,243.754 48.333 C 243.611 48.333,243.500 48.188,243.500 48.000 C 243.500 47.817,243.400 47.667,243.277 47.667 C 243.043 47.667,242.667 46.993,242.667 46.575 C 242.667 46.442,242.554 46.333,242.417 46.333 C 242.278 46.333,242.167 46.185,242.167 46.000 C 242.167 45.778,242.056 45.667,241.833 45.667 C 241.611 45.667,241.500 45.556,241.500 45.333 C 241.500 45.150,241.350 44.850,241.167 44.667 C 240.983 44.483,240.833 44.214,240.833 44.068 C 240.833 43.922,240.683 43.763,240.500 43.715 C 240.317 43.667,240.167 43.495,240.167 43.333 C 240.167 43.171,240.017 43.000,239.833 42.952 C 239.604 42.892,239.500 42.724,239.500 42.417 C 239.500 42.109,239.396 41.942,239.167 41.882 C 238.982 41.833,238.833 41.654,238.833 41.481 C 238.833 41.278,238.715 41.167,238.500 41.167 C 238.240 41.167,238.167 41.056,238.167 40.661 C 238.167 40.380,238.062 40.116,237.932 40.066 C 237.802 40.016,237.651 39.794,237.595 39.571 C 237.539 39.349,237.383 39.167,237.247 39.167 C 237.111 39.167,237.000 39.057,237.000 38.923 C 237.000 38.788,236.850 38.598,236.667 38.500 C 236.467 38.393,236.333 38.151,236.333 37.895 C 236.333 37.609,236.224 37.440,236.000 37.382 C 235.816 37.333,235.667 37.154,235.667 36.981 C 235.667 36.778,235.549 36.667,235.333 36.667 C 235.062 36.667,235.000 36.556,235.000 36.068 C 235.000 35.609,234.922 35.448,234.667 35.382 C 234.482 35.333,234.333 35.154,234.333 34.981 C 234.333 34.778,234.215 34.667,234.000 34.667 C 233.793 34.667,233.667 34.556,233.667 34.373 C 233.667 34.212,233.517 33.987,233.333 33.872 C 233.140 33.751,233.000 33.483,233.000 33.233 C 233.000 32.942,232.892 32.774,232.667 32.715 C 232.482 32.667,232.333 32.488,232.333 32.314 C 232.333 32.111,232.451 32.000,232.667 32.000 C 232.882 32.000,233.000 31.889,233.000 31.686 C 233.000 31.512,233.149 31.333,233.333 31.285 C 233.562 31.225,233.667 31.058,233.667 30.750 C 233.667 30.450,233.771 30.275,233.985 30.219 C 234.159 30.173,234.340 29.993,234.386 29.818 C 234.431 29.643,234.588 29.500,234.734 29.500 C 234.889 29.500,235.000 29.361,235.000 29.167 C 235.000 28.944,235.111 28.833,235.333 28.833 C 235.556 28.833,235.667 28.722,235.667 28.500 C 235.667 28.278,235.778 28.167,236.000 28.167 C 236.215 28.167,236.333 28.056,236.333 27.853 C 236.333 27.679,236.482 27.500,236.667 27.452 C 236.850 27.404,237.000 27.245,237.000 27.099 C 237.000 26.953,237.112 26.833,237.250 26.833 C 237.387 26.833,237.500 26.723,237.500 26.589 C 237.500 26.455,237.650 26.265,237.833 26.167 C 238.024 26.064,238.167 25.818,238.167 25.589 C 238.167 25.336,238.289 25.150,238.500 25.083 C 238.683 25.025,238.833 24.875,238.833 24.750 C 238.833 24.625,238.983 24.475,239.167 24.417 C 239.350 24.358,239.500 24.166,239.500 23.989 C 239.500 23.778,239.615 23.667,239.833 23.667 C 240.056 23.667,240.167 23.556,240.167 23.333 C 240.167 23.111,240.278 23.000,240.500 23.000 C 240.722 23.000,240.833 22.889,240.833 22.667 C 240.833 22.444,240.944 22.333,241.167 22.333 C 241.382 22.333,241.500 22.222,241.500 22.019 C 241.500 21.846,241.649 21.667,241.833 21.618 C 242.017 21.570,242.167 21.412,242.167 21.266 C 242.167 21.120,242.279 21.000,242.417 21.000 C 242.554 21.000,242.667 20.891,242.667 20.758 C 242.667 20.535,242.937 20.182,243.835 19.232 C 244.017 19.039,244.167 18.796,244.167 18.691 C 244.167 18.586,244.279 18.500,244.417 18.500 C 244.554 18.500,244.667 18.359,244.667 18.186 C 244.667 18.009,244.817 17.833,245.011 17.782 C 245.288 17.710,245.346 17.582,245.303 17.138 L 245.250 16.583 240.353 16.539 C 235.127 16.492,235.109 16.494,234.941 17.337 C 234.885 17.615,234.735 17.833,234.599 17.833 C 234.465 17.833,234.308 17.983,234.250 18.167 C 234.192 18.350,234.037 18.500,233.905 18.500 C 233.774 18.500,233.667 18.650,233.667 18.833 C 233.667 19.056,233.556 19.167,233.333 19.167 C 233.111 19.167,233.000 19.278,233.000 19.500 C 233.000 19.685,232.889 19.833,232.750 19.833 C 232.612 19.833,232.500 19.941,232.500 20.072 C 232.500 20.203,232.358 20.356,232.185 20.411 C 232.011 20.466,231.831 20.659,231.784 20.839 C 231.736 21.019,231.578 21.167,231.432 21.167 C 231.267 21.167,231.167 21.310,231.167 21.549 C 231.167 21.781,230.905 22.171,230.500 22.543 C 230.133 22.880,229.833 23.271,229.833 23.411 C 229.833 23.556,229.688 23.667,229.500 23.667 C 229.278 23.667,229.167 23.778,229.167 24.000 C 229.167 24.222,229.056 24.333,228.833 24.333 C 228.618 24.333,228.500 24.444,228.500 24.647 C 228.500 24.821,228.351 25.000,228.167 25.048 C 227.983 25.096,227.833 25.255,227.833 25.401 C 227.833 25.547,227.721 25.667,227.583 25.667 C 227.443 25.667,227.333 25.816,227.333 26.007 C 227.333 26.193,227.033 26.649,226.667 27.020 C 226.300 27.390,226.000 27.800,226.000 27.930 C 226.000 28.060,225.850 28.167,225.667 28.167 C 225.444 28.167,225.333 28.278,225.333 28.500 C 225.333 28.722,225.222 28.833,225.000 28.833 C 224.778 28.833,224.667 28.944,224.667 29.167 C 224.667 29.361,224.556 29.500,224.401 29.500 C 224.255 29.500,224.096 29.650,224.048 29.833 C 224.000 30.017,223.864 30.167,223.744 30.167 C 223.625 30.167,223.490 30.260,223.444 30.375 C 223.397 30.490,223.354 27.415,223.346 23.542 L 223.333 16.500 219.278 16.500 C 217.047 16.500,215.172 16.550,215.111 16.611 M28.412 19.229 C 28.231 19.354,27.840 19.510,27.542 19.575 C 27.083 19.675,25.500 20.996,25.500 21.279 C 25.500 21.326,25.331 21.602,25.125 21.891 L 24.750 22.417 24.703 36.236 C 24.674 44.635,24.717 50.117,24.811 50.211 C 24.967 50.367,25.239 50.114,30.885 44.582 C 32.710 42.794,33.636 42.000,33.896 42.000 C 34.244 42.000,35.833 43.383,35.833 43.686 C 35.833 43.755,35.983 43.858,36.167 43.917 C 36.350 43.975,36.500 44.089,36.500 44.170 C 36.500 44.363,37.304 45.167,37.496 45.167 C 37.578 45.167,37.692 45.317,37.750 45.500 C 37.808 45.683,37.933 45.833,38.027 45.833 C 38.121 45.833,39.294 46.920,40.635 48.248 C 41.975 49.575,43.132 50.601,43.206 50.527 C 43.538 50.196,43.271 22.955,42.930 22.333 C 42.088 20.797,41.774 20.336,41.567 20.334 C 41.467 20.334,41.249 20.183,41.083 20.000 C 40.917 19.817,40.661 19.667,40.513 19.667 C 40.366 19.667,39.965 19.517,39.623 19.333 C 38.821 18.903,29.011 18.812,28.412 19.229 M150.167 23.231 C 150.167 23.540,150.692 23.662,152.036 23.664 C 152.983 23.666,153.182 23.718,153.333 24.000 C 153.459 24.235,153.682 24.333,154.089 24.333 C 154.485 24.333,154.667 24.410,154.667 24.577 C 154.667 24.720,154.942 24.895,155.333 25.000 C 155.700 25.099,156.000 25.252,156.000 25.340 C 156.000 25.428,156.104 25.500,156.231 25.500 C 156.357 25.500,156.500 25.650,156.548 25.833 C 156.596 26.017,156.746 26.167,156.882 26.167 C 157.017 26.167,157.167 26.317,157.215 26.500 C 157.263 26.683,157.422 26.833,157.568 26.833 C 157.722 26.833,157.833 26.973,157.833 27.167 C 157.833 27.389,157.944 27.500,158.167 27.500 C 158.389 27.500,158.500 27.611,158.500 27.833 C 158.500 28.017,158.650 28.317,158.833 28.500 C 159.017 28.683,159.167 28.975,159.167 29.147 C 159.167 29.321,159.316 29.500,159.500 29.548 C 159.774 29.620,159.833 29.776,159.833 30.417 C 159.833 31.058,159.893 31.214,160.167 31.285 C 160.487 31.369,160.500 31.512,160.500 34.896 C 160.500 38.239,160.483 38.430,160.167 38.628 C 159.924 38.780,159.833 39.017,159.833 39.500 C 159.833 39.983,159.743 40.220,159.500 40.372 C 159.317 40.487,159.167 40.714,159.167 40.879 C 159.167 41.043,159.059 41.219,158.927 41.269 C 158.795 41.320,158.637 41.589,158.576 41.867 C 158.511 42.163,158.333 42.408,158.149 42.456 C 157.975 42.502,157.833 42.638,157.833 42.758 C 157.833 42.879,157.683 43.025,157.500 43.083 C 157.317 43.142,157.167 43.288,157.167 43.408 C 157.167 43.529,157.017 43.667,156.833 43.715 C 156.650 43.763,156.500 43.922,156.500 44.068 C 156.500 44.214,156.406 44.333,156.290 44.333 C 156.175 44.333,155.987 44.483,155.872 44.667 C 155.739 44.879,155.483 45.000,155.165 45.000 C 154.778 45.000,154.667 45.074,154.667 45.333 C 154.667 45.608,154.556 45.667,154.040 45.667 C 153.594 45.667,153.354 45.763,153.205 46.000 C 153.025 46.289,152.817 46.333,151.650 46.333 C 150.442 46.333,150.293 46.368,150.215 46.667 C 150.142 46.945,149.988 47.000,149.271 47.000 C 148.594 47.000,148.370 46.930,148.205 46.667 C 148.027 46.382,147.817 46.333,146.749 46.333 C 145.611 46.333,145.500 46.304,145.500 46.000 C 145.500 45.724,145.389 45.667,144.853 45.667 C 144.346 45.667,144.187 45.594,144.118 45.333 C 144.055 45.091,143.891 45.000,143.516 45.000 C 143.165 45.000,143.000 44.919,143.000 44.746 C 143.000 44.606,142.831 44.425,142.625 44.344 C 142.419 44.262,142.063 43.964,141.835 43.681 C 141.607 43.398,141.326 43.167,141.210 43.167 C 141.095 43.167,141.000 43.047,141.000 42.901 C 141.000 42.755,140.850 42.596,140.667 42.548 C 140.482 42.500,140.333 42.321,140.333 42.147 C 140.333 41.944,140.215 41.833,140.000 41.833 C 139.722 41.833,139.667 41.722,139.667 41.167 C 139.667 40.611,139.611 40.500,139.333 40.500 C 139.056 40.500,139.000 40.389,139.000 39.833 C 139.000 39.278,138.944 39.167,138.667 39.167 C 138.363 39.167,138.333 39.056,138.333 37.917 C 138.333 36.917,138.283 36.667,138.083 36.667 C 137.878 36.667,137.833 36.370,137.833 35.000 C 137.833 33.630,137.878 33.333,138.083 33.333 C 138.283 33.333,138.333 33.085,138.333 32.095 C 138.333 31.002,138.373 30.843,138.667 30.750 C 138.912 30.672,139.000 30.498,139.000 30.092 C 139.000 29.679,139.085 29.517,139.333 29.452 C 139.589 29.385,139.667 29.224,139.667 28.766 C 139.667 28.278,139.729 28.167,140.000 28.167 C 140.183 28.167,140.333 28.058,140.333 27.924 C 140.333 27.661,141.089 26.833,141.330 26.833 C 141.411 26.833,141.525 26.683,141.583 26.500 C 141.642 26.317,141.788 26.167,141.908 26.167 C 142.029 26.167,142.167 26.017,142.215 25.833 C 142.267 25.634,142.442 25.500,142.651 25.500 C 142.843 25.500,143.000 25.396,143.000 25.269 C 143.000 25.136,143.249 24.990,143.583 24.928 C 143.933 24.862,144.167 24.721,144.167 24.576 C 144.167 24.430,144.328 24.333,144.570 24.333 C 145.145 24.333,145.500 24.168,145.500 23.899 C 145.500 23.722,145.781 23.667,146.668 23.667 C 147.630 23.667,147.887 23.608,148.122 23.333 C 148.474 22.922,150.167 22.837,150.167 23.231 M191.667 23.231 C 191.667 23.540,192.192 23.662,193.536 23.664 C 194.483 23.666,194.682 23.718,194.833 24.000 C 194.959 24.235,195.182 24.333,195.589 24.333 C 195.996 24.333,196.167 24.409,196.167 24.587 C 196.167 24.738,196.376 24.884,196.681 24.945 C 196.964 25.001,197.234 25.149,197.282 25.274 C 197.330 25.398,197.502 25.500,197.665 25.500 C 197.828 25.500,198.000 25.650,198.048 25.833 C 198.096 26.017,198.246 26.167,198.382 26.167 C 198.517 26.167,198.667 26.317,198.715 26.500 C 198.763 26.683,198.922 26.833,199.068 26.833 C 199.222 26.833,199.333 26.973,199.333 27.167 C 199.333 27.389,199.444 27.500,199.667 27.500 C 199.889 27.500,200.000 27.611,200.000 27.833 C 200.000 28.017,200.150 28.317,200.333 28.500 C 200.517 28.683,200.667 28.975,200.667 29.147 C 200.667 29.321,200.816 29.500,201.000 29.548 C 201.274 29.620,201.333 29.776,201.333 30.417 C 201.333 31.058,201.393 31.214,201.667 31.285 C 201.987 31.369,202.000 31.512,202.000 34.925 C 202.000 38.331,201.986 38.482,201.667 38.583 C 201.400 38.668,201.333 38.836,201.333 39.426 C 201.333 39.983,201.252 40.215,201.000 40.372 C 200.817 40.487,200.667 40.714,200.667 40.879 C 200.667 41.043,200.559 41.219,200.427 41.269 C 200.295 41.320,200.137 41.589,200.076 41.867 C 200.011 42.163,199.833 42.408,199.649 42.456 C 199.475 42.502,199.333 42.634,199.333 42.750 C 199.333 42.866,199.183 43.000,199.000 43.048 C 198.817 43.096,198.667 43.246,198.667 43.382 C 198.667 43.517,198.517 43.667,198.333 43.715 C 198.150 43.763,198.000 43.922,198.000 44.068 C 198.000 44.214,197.890 44.333,197.756 44.333 C 197.622 44.333,197.431 44.483,197.333 44.667 C 197.217 44.885,196.984 45.000,196.661 45.000 C 196.278 45.000,196.167 45.075,196.167 45.333 C 196.167 45.608,196.056 45.667,195.540 45.667 C 195.094 45.667,194.854 45.763,194.705 46.000 C 194.525 46.289,194.317 46.333,193.150 46.333 C 191.942 46.333,191.793 46.368,191.715 46.667 C 191.642 46.945,191.488 47.000,190.771 47.000 C 190.094 47.000,189.870 46.930,189.705 46.667 C 189.527 46.382,189.317 46.333,188.249 46.333 C 187.111 46.333,187.000 46.304,187.000 46.000 C 187.000 45.724,186.889 45.667,186.353 45.667 C 185.846 45.667,185.687 45.594,185.618 45.333 C 185.556 45.094,185.391 45.000,185.035 45.000 C 184.679 45.000,184.514 44.906,184.452 44.667 C 184.400 44.467,184.224 44.333,184.016 44.333 C 183.824 44.333,183.667 44.262,183.667 44.174 C 183.667 43.968,182.866 43.167,182.659 43.167 C 182.572 43.167,182.500 43.047,182.500 42.901 C 182.500 42.755,182.350 42.596,182.167 42.548 C 181.982 42.500,181.833 42.321,181.833 42.147 C 181.833 41.944,181.715 41.833,181.500 41.833 C 181.229 41.833,181.167 41.722,181.167 41.234 C 181.167 40.776,181.089 40.615,180.833 40.548 C 180.572 40.480,180.500 40.321,180.500 39.814 C 180.500 39.278,180.443 39.167,180.167 39.167 C 179.863 39.167,179.833 39.056,179.833 37.917 C 179.833 36.917,179.783 36.667,179.583 36.667 C 179.378 36.667,179.333 36.370,179.333 35.000 C 179.333 33.630,179.378 33.333,179.583 33.333 C 179.783 33.333,179.833 33.085,179.833 32.095 C 179.833 31.002,179.873 30.843,180.167 30.750 C 180.413 30.672,180.500 30.498,180.500 30.083 C 180.500 29.669,180.587 29.495,180.833 29.417 C 181.081 29.338,181.167 29.164,181.167 28.739 C 181.167 28.278,181.231 28.167,181.500 28.167 C 181.683 28.167,181.833 28.058,181.833 27.924 C 181.833 27.661,182.589 26.833,182.830 26.833 C 182.911 26.833,183.025 26.683,183.083 26.500 C 183.142 26.317,183.297 26.167,183.428 26.167 C 183.559 26.167,183.667 26.052,183.667 25.913 C 183.667 25.773,183.854 25.587,184.083 25.500 C 184.313 25.413,184.500 25.273,184.500 25.189 C 184.500 25.106,184.762 24.988,185.083 24.928 C 185.433 24.862,185.667 24.721,185.667 24.576 C 185.667 24.430,185.828 24.333,186.070 24.333 C 186.645 24.333,187.000 24.168,187.000 23.899 C 187.000 23.722,187.281 23.667,188.168 23.667 C 189.130 23.667,189.387 23.608,189.622 23.333 C 189.974 22.922,191.667 22.837,191.667 23.231 M351.083 23.333 C 351.162 23.581,351.336 23.667,351.761 23.667 C 352.147 23.667,352.333 23.745,352.333 23.905 C 352.333 24.037,352.483 24.192,352.667 24.250 C 352.850 24.308,353.000 24.454,353.000 24.575 C 353.000 24.696,353.150 24.834,353.333 24.882 C 353.533 24.934,353.667 25.109,353.667 25.318 C 353.667 25.510,353.817 25.817,354.000 26.000 C 354.273 26.273,354.333 26.556,354.333 27.564 C 354.333 28.654,354.295 28.804,354.000 28.882 C 353.745 28.948,353.667 29.109,353.667 29.568 C 353.667 30.056,353.605 30.167,353.333 30.167 C 353.111 30.167,353.000 30.278,353.000 30.500 C 353.000 30.716,352.889 30.833,352.684 30.833 C 352.511 30.833,352.329 30.938,352.280 31.065 C 352.222 31.216,351.778 31.339,351.012 31.415 C 350.170 31.500,349.833 31.600,349.833 31.767 C 349.833 31.958,349.304 32.000,346.917 32.000 L 344.000 32.000 344.000 27.500 L 344.000 23.000 347.489 23.000 C 350.831 23.000,350.982 23.014,351.083 23.333 M115.167 23.899 C 115.167 24.154,115.517 24.333,116.014 24.333 C 116.189 24.333,116.333 24.441,116.333 24.572 C 116.333 24.703,116.483 24.858,116.667 24.917 C 116.850 24.975,117.000 25.130,117.000 25.261 C 117.000 25.393,117.150 25.500,117.333 25.500 C 117.644 25.500,117.667 25.611,117.667 27.167 C 117.667 28.581,117.626 28.833,117.401 28.833 C 117.255 28.833,117.096 28.983,117.048 29.167 C 117.000 29.350,116.866 29.500,116.750 29.500 C 116.634 29.500,116.500 29.650,116.452 29.833 C 116.404 30.017,116.250 30.167,116.110 30.167 C 115.970 30.167,115.808 30.317,115.750 30.500 C 115.648 30.822,115.498 30.833,111.489 30.833 L 107.333 30.833 107.333 27.250 L 107.333 23.667 111.250 23.667 C 114.487 23.667,115.167 23.707,115.167 23.899 M313.967 26.367 C 314.077 26.477,314.167 27.007,314.167 27.549 C 314.167 28.391,314.214 28.544,314.500 28.618 C 314.774 28.690,314.833 28.846,314.833 29.499 C 314.833 30.001,314.925 30.369,315.083 30.500 C 315.221 30.614,315.333 30.958,315.333 31.265 C 315.333 31.651,315.435 31.876,315.667 32.000 C 315.931 32.141,316.000 32.349,316.000 33.000 C 316.000 33.651,316.069 33.859,316.333 34.000 C 316.596 34.141,316.667 34.349,316.667 34.986 C 316.667 35.654,316.724 35.810,317.000 35.882 C 317.199 35.934,317.333 36.109,317.333 36.318 C 317.333 36.661,317.276 36.667,313.708 36.667 L 310.083 36.667 310.140 35.757 C 310.185 35.037,310.263 34.825,310.515 34.745 C 310.765 34.666,310.833 34.486,310.833 33.905 C 310.833 33.388,310.902 33.167,311.064 33.167 C 311.326 33.167,311.494 32.667,311.498 31.875 C 311.499 31.524,311.582 31.333,311.732 31.333 C 312.030 31.333,312.167 30.968,312.167 30.172 C 312.167 29.679,312.240 29.520,312.500 29.452 C 312.782 29.378,312.833 29.224,312.833 28.450 C 312.833 27.807,312.905 27.508,313.074 27.443 C 313.207 27.392,313.365 27.084,313.426 26.759 C 313.545 26.126,313.650 26.050,313.967 26.367 M283.667 32.244 C 283.667 32.484,283.528 32.729,283.333 32.833 C 283.035 32.993,283.000 32.960,283.000 32.518 C 283.000 32.188,283.097 31.999,283.292 31.948 C 283.452 31.906,283.602 31.863,283.625 31.853 C 283.648 31.842,283.667 32.018,283.667 32.244 M115.039 38.167 C 115.204 38.431,115.427 38.500,116.123 38.500 C 116.889 38.500,117.000 38.542,117.000 38.833 C 117.000 39.049,117.111 39.167,117.314 39.167 C 117.488 39.167,117.667 39.316,117.715 39.500 C 117.763 39.683,117.922 39.833,118.068 39.833 C 118.222 39.833,118.333 39.973,118.333 40.167 C 118.333 40.350,118.483 40.650,118.667 40.833 C 118.937 41.104,119.000 41.389,119.000 42.349 C 119.000 43.391,118.960 43.542,118.667 43.618 C 118.483 43.666,118.333 43.806,118.333 43.929 C 118.333 44.189,117.654 44.905,117.267 45.054 C 117.120 45.110,117.000 45.271,117.000 45.411 C 117.000 45.592,116.830 45.667,116.423 45.667 C 116.016 45.667,115.792 45.765,115.667 46.000 C 115.496 46.319,115.318 46.333,111.411 46.333 L 107.333 46.333 107.333 42.083 L 107.333 37.833 111.082 37.833 C 114.650 37.833,114.841 37.849,115.039 38.167 " stroke="none" fill="#fcfcfc" fill-rule="evenodd"></path><path id="path2" d="M25.833 20.417 C 25.428 20.829,25.135 21.167,25.181 21.167 C 25.226 21.167,25.595 20.829,26.000 20.417 C 26.405 20.004,26.699 19.667,26.653 19.667 C 26.607 19.667,26.238 20.004,25.833 20.417 M41.167 19.727 C 41.167 19.773,41.392 19.971,41.667 20.167 C 41.942 20.362,42.167 20.485,42.167 20.439 C 42.167 20.394,41.942 20.196,41.667 20.000 C 41.392 19.804,41.167 19.681,41.167 19.727 M24.374 36.792 C 24.327 53.178,24.054 51.724,26.670 49.042 L 28.417 47.250 26.628 48.994 C 25.423 50.169,24.784 50.684,24.670 50.570 C 24.560 50.460,24.487 45.606,24.458 36.576 L 24.415 22.750 24.374 36.792 M43.579 37.333 C 43.579 44.621,43.600 47.602,43.625 43.958 C 43.650 40.315,43.650 34.352,43.625 30.708 C 43.600 27.065,43.579 30.046,43.579 37.333 " stroke="none" fill="#acb4ec" fill-rule="evenodd"></path><path id="path3" d="M27.505 18.910 C 27.394 19.044,27.141 19.202,26.943 19.261 C 26.466 19.404,24.500 21.464,24.500 21.822 C 24.500 21.977,24.390 22.249,24.255 22.426 C 23.969 22.805,23.867 51.065,24.151 51.240 C 24.601 51.519,25.079 51.102,31.120 45.167 C 34.196 42.145,33.698 42.213,36.019 44.498 C 43.420 51.785,43.416 51.781,43.830 51.005 C 44.064 50.569,43.956 24.499,43.715 23.075 C 43.458 21.559,41.996 19.613,40.841 19.251 C 40.616 19.180,40.330 19.020,40.204 18.895 C 39.854 18.545,27.796 18.559,27.505 18.910 M40.656 19.434 C 41.892 20.072,42.328 20.529,43.101 22.000 L 43.583 22.917 43.583 36.867 C 43.583 47.532,43.536 50.864,43.382 51.018 C 43.179 51.221,42.701 50.775,35.980 44.115 C 33.995 42.149,33.994 42.148,33.617 42.449 C 33.409 42.614,32.230 43.732,30.995 44.933 C 25.736 50.045,24.885 50.833,24.616 50.833 C 24.196 50.833,24.179 23.512,24.599 22.281 C 24.952 21.242,26.165 19.926,27.316 19.332 L 28.250 18.849 33.871 18.841 L 39.491 18.833 40.656 19.434 " stroke="none" fill="#94a4ec" fill-rule="evenodd"></path><path id="path4" d="M27.750 19.254 C 26.975 19.642,26.957 19.663,27.500 19.564 C 27.821 19.505,28.231 19.354,28.412 19.229 C 29.011 18.812,38.821 18.903,39.623 19.333 C 39.965 19.517,40.366 19.667,40.513 19.667 C 40.661 19.667,40.917 19.817,41.083 20.000 C 41.249 20.183,41.467 20.334,41.567 20.334 C 41.774 20.336,42.088 20.797,42.930 22.333 C 43.271 22.955,43.538 50.196,43.206 50.527 C 43.132 50.601,41.975 49.575,40.635 48.248 C 39.294 46.920,38.121 45.833,38.027 45.833 C 37.933 45.833,37.808 45.683,37.750 45.500 C 37.692 45.317,37.578 45.167,37.496 45.167 C 37.304 45.167,36.500 44.363,36.500 44.170 C 36.500 44.089,36.350 43.975,36.167 43.917 C 35.983 43.858,35.833 43.755,35.833 43.686 C 35.833 43.383,34.244 42.000,33.896 42.000 C 33.636 42.000,32.710 42.794,30.885 44.582 C 25.239 50.114,24.967 50.367,24.811 50.211 C 24.717 50.117,24.674 44.635,24.703 36.236 L 24.750 22.417 25.125 21.891 C 25.331 21.602,25.500 21.320,25.500 21.266 C 25.500 21.211,25.815 20.869,26.201 20.506 C 26.586 20.143,26.859 19.803,26.807 19.751 C 26.614 19.559,24.900 21.620,24.701 22.283 C 24.429 23.193,24.409 50.424,24.681 50.592 C 24.859 50.702,26.115 49.551,31.111 44.703 C 32.501 43.354,33.758 42.250,33.905 42.250 C 34.051 42.250,36.167 44.200,38.607 46.583 C 41.048 48.967,43.128 50.917,43.230 50.917 C 43.366 50.917,43.417 47.100,43.417 36.833 L 43.417 22.750 42.946 21.869 C 42.347 20.746,41.568 19.969,40.460 19.390 L 39.583 18.931 34.083 18.884 L 28.583 18.836 27.750 19.254 " stroke="none" fill="#bcc4f4" fill-rule="evenodd"></path></g></svg>